<?xml version="1.0" encoding="utf-8"?>
<!-- Generator: Adobe Illustrator 24.1.0, SVG Export Plug-In . SVG Version: 6.00 Build 0)  -->
<svg version="1.1" id="Layer_1" xmlns="http://www.w3.org/2000/svg" xmlns:xlink="http://www.w3.org/1999/xlink" x="0px" y="0px"
	 viewBox="0 0 2000 2000" style="enable-background:new 0 0 2000 2000;" xml:space="preserve">
<style type="text/css">
	.st0{fill:#FFFFFF;}
</style>
<g transform="translate(0.000000,2000.000000) scale(0.100000,-0.100000)">
	<path class="st0" d="M3525,19993c-1529-125-2817-1120-3319-2563c-85-242-149-525-188-825C-1,16457-1,3543,18,3395
		c64-493,182-885,389-1299c364-727,962-1325,1689-1689c414-207,806-325,1299-389c148-19,13062-19,13210,0c493,64,885,182,1299,389
		c727,364,1325,962,1689,1689c207,414,325,806,389,1299c19,148,19,13062,0,13210c-39,300-103,583-188,825
		c-387,1114-1250,1977-2364,2364c-229,80-455,133-775,183c-103,16-526,17-6600,18C6486,19996,3547,19995,3525,19993z M5435,15510
		c253-29,474-120,675-279c249-197,426-501,475-819c14-86,15-605,13-4457c-3-4162-4-4363-21-4435c-64-263-181-475-361-655
		c-510-509-1325-511-1839-7c-230,226-359,505-387,838c-14,162-3,8587,11,8699C4087,15080,4741,15588,5435,15510z M14955,12765
		c476-98,855-437,998-891c59-187,56,7,58-3234c2-3071,2-3017-37-3175c-158-633-795-1063-1439-972c-296,42-542,164-751,372
		c-186,185-305,404-361,665c-17,81-18,218-18,3105c0,2885,1,3024,18,3105c106,493,472,880,951,1006
		C14545,12792,14789,12799,14955,12765z M10208,9985c586-95,1032-572,1092-1168c8-80,10-557,8-1657c-4-1411-5-1551-21-1615
		c-44-182-94-311-167-431c-406-662-1277-835-1897-376c-225,167-394,406-472,667c-59,196-55,70-59,1770c-2,1105,0,1589,8,1660
		c41,368,228,690,527,912c154,114,368,206,557,237C9894,10003,10095,10003,10208,9985z"/>
</g>
</svg>
