<svg xmlns="http://www.w3.org/2000/svg" viewBox="0 0 397.35 546.15"><defs><style>.cls-1{fill:#fff;fill-rule:evenodd;}</style></defs><title>Logo white</title><g id="Layer_2" data-name="Layer 2"><g id="Layer_1-2" data-name="Layer 1"><path class="cls-1" d="M44.4,324.91s33.86-5.71,64.89-27.59c39.07-27.55,82.17-60.83,121.54-87.63,42.23-28.74,104.67-14.4,127.81,5.49,23.55,20.24-21.74,3.72-61.14,28-46.78,28.79-86.33,71.27-133.34,95.6C111,366.24,3.87,334,44.4,324.91ZM239,444.89c-55.62,55.88-7.65,116.83-40.63,97.65C161.37,521,107.46,437.1,157.67,388c28.25-27.62,49.88-45.59,87.54-73.05,25.45-18.56,45.32-35.14,67.35-47.68,65.52-37.31,120.86,12.52,55.5,66C312.07,379,275.39,408.29,239,444.89ZM158.54,101.28c55.68-55.89,7.67-116.86,40.67-97.67,37,21.51,91,105.47,40.71,154.58-28.28,27.62-49.94,45.6-87.63,73.07C126.81,249.82,106.92,266.4,84.88,279c-65.59,37.31-121-12.52-55.56-66C85.37,167.16,122.08,137.9,158.54,101.28Z"/></g></g></svg>
