<svg id="Layer_1" data-name="Layer 1" xmlns="http://www.w3.org/2000/svg" viewBox="0 0 87.69 117"><defs><style>.cls-1{fill:#fff;}.cls-2{fill:#ffe278;}.cls-3{fill:#ffc85f;}</style></defs><g id="Right_4_Birds" data-name="Right 4 Birds"><path class="cls-1" d="M182.76,172.44l3.12,16.4L215.52,159V142a14,14,0,0,0-14,14h-15.6Z" transform="translate(-156.24 -142)"/><path class="cls-1" d="M185.88,188.8l-3.12,6.28L215.52,192V159.2a29.64,29.64,0,0,0-29.64,29.64h0Z" transform="translate(-156.24 -142)"/><path class="cls-2" d="M196.12,175.56a6.14,6.14,0,1,1,6.14,6.14h0A6.14,6.14,0,0,1,196.12,175.56Z" transform="translate(-156.24 -142)"/><path class="cls-1" d="M170.28,156a14,14,0,0,0-14-14v17.16l29.64,29.68V156Z" transform="translate(-156.24 -142)"/><path class="cls-1" d="M156.24,192l29.64,3.12V188.8a29.64,29.64,0,0,0-29.64-29.64h0Z" transform="translate(-156.24 -142)"/><path class="cls-3" d="M163.36,175.56a6.14,6.14,0,1,1,6.14,6.14h0A6.14,6.14,0,0,1,163.36,175.56Z" transform="translate(-156.24 -142)"/><path class="cls-1" d="M156.24,192v7.76A59.3,59.3,0,0,0,215.52,259V192Z" transform="translate(-156.24 -142)"/><path class="cls-1" d="M203.93,244.18a26.52,26.52,0,0,1,11.33-51.81" transform="translate(-156.24 -142)"/><path class="cls-1" d="M204,244.19a52.87,52.87,0,0,0,39.93-7.2l-28.67-44.62Z" transform="translate(-156.24 -142)"/></g></svg>